<mxfile host="app.diagrams.net" modified="2020-10-08T11:06:14.629Z" agent="5.0 (Windows NT 10.0; Win64; x64) AppleWebKit/537.36 (KHTML, like Gecko) Chrome/85.0.4183.121 Safari/537.36" etag="I-juRGt3EFhm6oTntMwH" version="13.7.8" type="github">
  <diagram id="C5RBs43oDa-KdzZeNtuy" name="Page-1">
    <mxGraphModel dx="772" dy="503" grid="1" gridSize="10" guides="1" tooltips="1" connect="1" arrows="1" fold="1" page="1" pageScale="1" pageWidth="827" pageHeight="1169" math="0" shadow="0">
      <root>
        <mxCell id="WIyWlLk6GJQsqaUBKTNV-0" />
        <mxCell id="WIyWlLk6GJQsqaUBKTNV-1" parent="WIyWlLk6GJQsqaUBKTNV-0" />
        <mxCell id="1gsxC0Mx0zIlKdK2NgmE-2" style="edgeStyle=orthogonalEdgeStyle;rounded=0;orthogonalLoop=1;jettySize=auto;html=1;entryX=0.5;entryY=0;entryDx=0;entryDy=0;" edge="1" parent="WIyWlLk6GJQsqaUBKTNV-1" source="1gsxC0Mx0zIlKdK2NgmE-0" target="1gsxC0Mx0zIlKdK2NgmE-1">
          <mxGeometry relative="1" as="geometry" />
        </mxCell>
        <mxCell id="1gsxC0Mx0zIlKdK2NgmE-0" value="" style="shape=mxgraph.bpmn.shape;html=1;verticalLabelPosition=bottom;labelBackgroundColor=#ffffff;verticalAlign=top;align=center;perimeter=ellipsePerimeter;outlineConnect=0;outline=standard;symbol=general;" vertex="1" parent="WIyWlLk6GJQsqaUBKTNV-1">
          <mxGeometry x="120" y="70" width="50" height="50" as="geometry" />
        </mxCell>
        <mxCell id="1gsxC0Mx0zIlKdK2NgmE-4" style="edgeStyle=orthogonalEdgeStyle;rounded=0;orthogonalLoop=1;jettySize=auto;html=1;entryX=0;entryY=0.5;entryDx=0;entryDy=0;" edge="1" parent="WIyWlLk6GJQsqaUBKTNV-1" source="1gsxC0Mx0zIlKdK2NgmE-1" target="1gsxC0Mx0zIlKdK2NgmE-3">
          <mxGeometry relative="1" as="geometry" />
        </mxCell>
        <mxCell id="1gsxC0Mx0zIlKdK2NgmE-1" value="Identify no of classes" style="rounded=1;whiteSpace=wrap;html=1;fontSize=12;glass=0;strokeWidth=1;shadow=0;" vertex="1" parent="WIyWlLk6GJQsqaUBKTNV-1">
          <mxGeometry x="85" y="170" width="120" height="40" as="geometry" />
        </mxCell>
        <mxCell id="1gsxC0Mx0zIlKdK2NgmE-6" style="edgeStyle=orthogonalEdgeStyle;rounded=0;orthogonalLoop=1;jettySize=auto;html=1;entryX=0;entryY=0.5;entryDx=0;entryDy=0;" edge="1" parent="WIyWlLk6GJQsqaUBKTNV-1" source="1gsxC0Mx0zIlKdK2NgmE-3" target="1gsxC0Mx0zIlKdK2NgmE-8">
          <mxGeometry relative="1" as="geometry">
            <mxPoint x="490" y="190" as="targetPoint" />
          </mxGeometry>
        </mxCell>
        <mxCell id="1gsxC0Mx0zIlKdK2NgmE-3" value="Get their loc paths" style="rounded=1;whiteSpace=wrap;html=1;fontSize=12;glass=0;strokeWidth=1;shadow=0;" vertex="1" parent="WIyWlLk6GJQsqaUBKTNV-1">
          <mxGeometry x="270" y="170" width="120" height="40" as="geometry" />
        </mxCell>
        <mxCell id="1gsxC0Mx0zIlKdK2NgmE-7" value="For Every class" style="text;html=1;align=center;verticalAlign=middle;resizable=0;points=[];autosize=1;" vertex="1" parent="WIyWlLk6GJQsqaUBKTNV-1">
          <mxGeometry x="390" y="160" width="100" height="20" as="geometry" />
        </mxCell>
        <mxCell id="1gsxC0Mx0zIlKdK2NgmE-11" style="edgeStyle=orthogonalEdgeStyle;rounded=0;orthogonalLoop=1;jettySize=auto;html=1;entryX=0.5;entryY=0;entryDx=0;entryDy=0;" edge="1" parent="WIyWlLk6GJQsqaUBKTNV-1" source="1gsxC0Mx0zIlKdK2NgmE-8" target="1gsxC0Mx0zIlKdK2NgmE-10">
          <mxGeometry relative="1" as="geometry" />
        </mxCell>
        <mxCell id="1gsxC0Mx0zIlKdK2NgmE-19" style="edgeStyle=orthogonalEdgeStyle;rounded=0;orthogonalLoop=1;jettySize=auto;html=1;entryX=0;entryY=0.5;entryDx=0;entryDy=0;" edge="1" parent="WIyWlLk6GJQsqaUBKTNV-1" source="1gsxC0Mx0zIlKdK2NgmE-8" target="1gsxC0Mx0zIlKdK2NgmE-21">
          <mxGeometry relative="1" as="geometry">
            <mxPoint x="630" y="190" as="targetPoint" />
          </mxGeometry>
        </mxCell>
        <mxCell id="1gsxC0Mx0zIlKdK2NgmE-8" value="&lt;font style=&quot;font-size: 10px&quot;&gt;max read&lt;br&gt;per class reached?&lt;/font&gt;" style="rhombus;whiteSpace=wrap;html=1;" vertex="1" parent="WIyWlLk6GJQsqaUBKTNV-1">
          <mxGeometry x="500" y="150" width="80" height="80" as="geometry" />
        </mxCell>
        <mxCell id="1gsxC0Mx0zIlKdK2NgmE-14" style="edgeStyle=orthogonalEdgeStyle;rounded=0;orthogonalLoop=1;jettySize=auto;html=1;entryX=0.5;entryY=0;entryDx=0;entryDy=0;" edge="1" parent="WIyWlLk6GJQsqaUBKTNV-1" source="1gsxC0Mx0zIlKdK2NgmE-10" target="1gsxC0Mx0zIlKdK2NgmE-13">
          <mxGeometry relative="1" as="geometry" />
        </mxCell>
        <mxCell id="1gsxC0Mx0zIlKdK2NgmE-10" value="read next image&amp;nbsp;" style="rounded=1;whiteSpace=wrap;html=1;fontSize=12;glass=0;strokeWidth=1;shadow=0;" vertex="1" parent="WIyWlLk6GJQsqaUBKTNV-1">
          <mxGeometry x="480" y="280" width="120" height="40" as="geometry" />
        </mxCell>
        <mxCell id="1gsxC0Mx0zIlKdK2NgmE-12" value="No" style="text;html=1;align=center;verticalAlign=middle;resizable=0;points=[];autosize=1;" vertex="1" parent="WIyWlLk6GJQsqaUBKTNV-1">
          <mxGeometry x="545" y="240" width="30" height="20" as="geometry" />
        </mxCell>
        <mxCell id="1gsxC0Mx0zIlKdK2NgmE-16" style="edgeStyle=orthogonalEdgeStyle;rounded=0;orthogonalLoop=1;jettySize=auto;html=1;entryX=1;entryY=0.5;entryDx=0;entryDy=0;" edge="1" parent="WIyWlLk6GJQsqaUBKTNV-1" source="1gsxC0Mx0zIlKdK2NgmE-13" target="1gsxC0Mx0zIlKdK2NgmE-15">
          <mxGeometry relative="1" as="geometry" />
        </mxCell>
        <mxCell id="1gsxC0Mx0zIlKdK2NgmE-13" value="Process image" style="rounded=1;whiteSpace=wrap;html=1;fontSize=12;glass=0;strokeWidth=1;shadow=0;" vertex="1" parent="WIyWlLk6GJQsqaUBKTNV-1">
          <mxGeometry x="480" y="380" width="120" height="40" as="geometry" />
        </mxCell>
        <mxCell id="1gsxC0Mx0zIlKdK2NgmE-17" style="edgeStyle=orthogonalEdgeStyle;rounded=0;orthogonalLoop=1;jettySize=auto;html=1;entryX=0;entryY=0.5;entryDx=0;entryDy=0;" edge="1" parent="WIyWlLk6GJQsqaUBKTNV-1" source="1gsxC0Mx0zIlKdK2NgmE-15" target="1gsxC0Mx0zIlKdK2NgmE-8">
          <mxGeometry relative="1" as="geometry">
            <Array as="points">
              <mxPoint x="360" y="250" />
              <mxPoint x="500" y="250" />
            </Array>
          </mxGeometry>
        </mxCell>
        <mxCell id="1gsxC0Mx0zIlKdK2NgmE-15" value="Write to storage variable" style="rounded=1;whiteSpace=wrap;html=1;fontSize=12;glass=0;strokeWidth=1;shadow=0;" vertex="1" parent="WIyWlLk6GJQsqaUBKTNV-1">
          <mxGeometry x="300" y="380" width="120" height="40" as="geometry" />
        </mxCell>
        <mxCell id="1gsxC0Mx0zIlKdK2NgmE-20" value="Yes" style="text;html=1;align=center;verticalAlign=middle;resizable=0;points=[];autosize=1;" vertex="1" parent="WIyWlLk6GJQsqaUBKTNV-1">
          <mxGeometry x="585" y="160" width="30" height="20" as="geometry" />
        </mxCell>
        <mxCell id="1gsxC0Mx0zIlKdK2NgmE-24" style="edgeStyle=orthogonalEdgeStyle;rounded=0;orthogonalLoop=1;jettySize=auto;html=1;entryX=0.5;entryY=0;entryDx=0;entryDy=0;" edge="1" parent="WIyWlLk6GJQsqaUBKTNV-1" source="1gsxC0Mx0zIlKdK2NgmE-21" target="1gsxC0Mx0zIlKdK2NgmE-23">
          <mxGeometry relative="1" as="geometry">
            <Array as="points">
              <mxPoint x="790" y="190" />
            </Array>
          </mxGeometry>
        </mxCell>
        <mxCell id="1gsxC0Mx0zIlKdK2NgmE-28" style="edgeStyle=orthogonalEdgeStyle;rounded=0;orthogonalLoop=1;jettySize=auto;html=1;exitX=0.5;exitY=1;exitDx=0;exitDy=0;entryX=0;entryY=0.5;entryDx=0;entryDy=0;" edge="1" parent="WIyWlLk6GJQsqaUBKTNV-1" source="1gsxC0Mx0zIlKdK2NgmE-21" target="1gsxC0Mx0zIlKdK2NgmE-26">
          <mxGeometry relative="1" as="geometry" />
        </mxCell>
        <mxCell id="1gsxC0Mx0zIlKdK2NgmE-21" value="Store?" style="rhombus;whiteSpace=wrap;html=1;" vertex="1" parent="WIyWlLk6GJQsqaUBKTNV-1">
          <mxGeometry x="650" y="150" width="80" height="80" as="geometry" />
        </mxCell>
        <mxCell id="1gsxC0Mx0zIlKdK2NgmE-27" style="edgeStyle=orthogonalEdgeStyle;rounded=0;orthogonalLoop=1;jettySize=auto;html=1;" edge="1" parent="WIyWlLk6GJQsqaUBKTNV-1" source="1gsxC0Mx0zIlKdK2NgmE-23" target="1gsxC0Mx0zIlKdK2NgmE-26">
          <mxGeometry relative="1" as="geometry" />
        </mxCell>
        <mxCell id="1gsxC0Mx0zIlKdK2NgmE-23" value="Flush to storage" style="rounded=1;whiteSpace=wrap;html=1;fontSize=12;glass=0;strokeWidth=1;shadow=0;" vertex="1" parent="WIyWlLk6GJQsqaUBKTNV-1">
          <mxGeometry x="730" y="250" width="120" height="40" as="geometry" />
        </mxCell>
        <mxCell id="1gsxC0Mx0zIlKdK2NgmE-25" value="Yes" style="text;html=1;align=center;verticalAlign=middle;resizable=0;points=[];autosize=1;" vertex="1" parent="WIyWlLk6GJQsqaUBKTNV-1">
          <mxGeometry x="735" y="160" width="30" height="20" as="geometry" />
        </mxCell>
        <mxCell id="1gsxC0Mx0zIlKdK2NgmE-26" value="" style="ellipse;html=1;shape=endState;fillColor=#000000;strokeColor=#ff0000;" vertex="1" parent="WIyWlLk6GJQsqaUBKTNV-1">
          <mxGeometry x="775" y="380" width="30" height="30" as="geometry" />
        </mxCell>
        <mxCell id="1gsxC0Mx0zIlKdK2NgmE-29" value="No" style="text;html=1;align=center;verticalAlign=middle;resizable=0;points=[];autosize=1;" vertex="1" parent="WIyWlLk6GJQsqaUBKTNV-1">
          <mxGeometry x="655" y="250" width="30" height="20" as="geometry" />
        </mxCell>
      </root>
    </mxGraphModel>
  </diagram>
</mxfile>
